<?xml version="1.0" encoding="utf-8" ?><svg xmlns="http://www.w3.org/2000/svg" xmlns:xlink="http://www.w3.org/1999/xlink" width="425" height="425" viewBox="0 0 425 425"><defs><linearGradient id="gradient_0" gradientUnits="userSpaceOnUse" x1="168.97598" y1="316.53683" x2="258.13196" y2="116.59245"><stop offset="0" stop-color="#009EFE" stop-opacity="0.98823529"/><stop offset="1" stop-color="#00BDFF" stop-opacity="0.98823529"/></linearGradient></defs><path fill="url(#gradient_0)" d="M210.359 121.402C205.707 118.682 202.368 114.478 203.834 108.75C204.945 103.513 212.119 99.1827 217.268 101.331C227.371 105.545 227.267 116.561 217.544 121.288C217.89 125.551 217.732 131.371 217.738 135.822L217.673 161.597C217.627 168.127 218.196 178.891 217.758 184.901C219.827 184.912 221.157 185.122 223.129 185.666C224.1 173.603 240.233 166.546 245.762 156.895C246.728 155.209 246.272 136.535 246.259 133.975C237.889 128.785 237.772 118.551 246.913 114.397C247.894 114.32 248.173 114.131 249.098 113.727C263.111 112.558 264.56 131.433 254.194 133.318C253.809 133.457 253.605 133.414 253.423 133.806C252.934 134.859 253.014 156.329 253.227 158.89C251.033 166.092 234.614 176.832 230.998 184.113C230.311 185.496 230.47 187.059 230.522 188.59C235.095 191.09 240.326 196.06 242.798 200.623C249.19 197.101 258.555 194.268 264.477 190.733C265.74 187.946 267.624 184.851 270.707 183.865C284.903 179.324 290.396 198.03 277.291 203.079C272.452 204.943 267.811 201.903 265.072 197.912C262.358 199.689 248.659 205.896 245.549 206.851C248.557 213.734 248.294 220.683 246.353 227.83C248.725 228.433 264.178 234.34 265.111 233.823C266.26 233.187 267.07 231.573 267.988 230.63C269.943 228.621 274.467 227.943 277.165 228.553C279.746 229.136 281.964 230.837 283.323 233.09C284.737 235.434 285.066 238.256 284.387 240.894C283.68 243.638 281.881 246.074 279.386 247.448C277.095 248.709 274.013 249.087 271.497 248.346C268.167 247.366 266.143 244.645 264.594 241.715C262.861 240.783 260.272 240.055 258.338 239.373C253.401 237.631 248.582 236.263 243.849 233.978C241.34 239.555 236.554 244.442 231.239 247.411C232.409 248.346 235.176 250.834 236.109 251.971C239.914 256.609 250.669 264.853 253.024 269.913C253.023 272.56 253.093 298.84 253.588 299.548C253.651 299.636 253.743 299.699 253.82 299.775C258.349 301.369 261.106 307.085 259.915 311.522C256.137 325.437 236.741 320.641 239.476 306.622C240.172 303.051 243.362 301.021 246.286 299.447C246.01 293.805 246.217 288.105 246.218 282.455C246.219 279.525 246.476 276.109 245.797 273.249C245.002 269.899 228.095 254.748 224.199 250.531C222.035 251.203 219.835 251.638 217.587 251.902C217.981 262.546 217.681 274.639 217.757 285.446C217.739 290.139 217.549 296.252 217.763 300.833C217.626 302.648 217.635 311.258 218.196 311.616C222.757 314.528 226.732 318.631 223.935 325.484C220.335 334.302 207.278 334.417 203.984 324.519C202.257 319.331 205.127 313.461 210.183 311.953L210.489 311.864C209.915 297.215 210.644 281.852 210.333 267.158C210.235 262.477 210.605 256.31 210.296 251.869C207.573 251.692 205.312 251.102 202.654 250.514C201.072 252.407 198.514 254.855 196.738 256.631L184.608 268.608C180.333 272.847 181.077 274.752 181.06 280.711C181.059 282.489 180.877 298.761 181.229 299.492C185.156 301.457 187.803 303.849 188.149 308.525C189.176 319.935 173.414 324.111 168.196 314.341C165.056 308.462 168.102 302.536 173.637 299.726C173.226 291.699 173.617 283.249 173.518 275.181C173.559 271.714 174.904 267.832 177.429 265.375C183.444 259.522 189.351 253.069 195.513 247.428C190.203 244.012 185.941 239.527 183.362 233.734C179.753 235.799 166.826 239.45 162.131 241.213C161.086 243.171 159.392 246.289 157.416 247.18C138.53 255.692 135.323 224.185 155.564 228.94C157.939 229.498 160.06 231.933 161.127 234.238C167.429 231.808 174.563 229.589 181.019 227.235C178.408 220.033 179.452 214.156 181.632 207.118C175.268 204.658 167.394 200.933 161.196 197.964C159.981 199.724 158.365 201.498 156.437 202.466C148.621 206.386 139.116 198.657 142.042 190.178C144.481 183.113 153.777 180.711 159.109 186.017C160.777 187.676 161.255 188.826 162.202 190.955C169.71 194.093 177.443 197.282 184.839 200.631C189.228 194.051 191.527 192.192 198.084 188.111C197.527 186.269 197.212 183.7 195.828 182.227C189.762 175.772 182.867 170.03 176.774 163.616C172.811 159.445 173.393 151.829 173.45 146.496C173.493 142.459 173.169 137.775 173.581 133.851C160.325 126.905 169.366 110.634 180.908 114.306C189.98 117.193 191.056 129.703 181.003 134.001C180.946 139.903 180.593 152.125 181.321 157.368C183.225 159.765 185.445 161.695 187.652 163.813L197.106 172.912C201.566 177.227 204.331 179.082 204.81 185.628C207.004 185.074 208.293 184.842 210.557 184.938C210.173 180.595 210.372 172.86 210.362 168.234L210.36 137.535C210.37 132.468 210.569 126.337 210.359 121.402ZM216.88 244.774C231.392 243.024 241.767 229.884 240.101 215.362C238.436 200.841 225.355 190.39 210.824 191.971C196.174 193.566 185.618 206.777 187.297 221.418C188.977 236.059 202.249 246.538 216.88 244.774ZM214.873 325.017C216.148 324.791 217.204 323.897 217.638 322.677C218.072 321.456 217.817 320.097 216.97 319.116C216.123 318.136 214.815 317.686 213.544 317.938C211.608 318.323 210.341 320.194 210.706 322.135C211.07 324.075 212.929 325.361 214.873 325.017ZM215.327 114.671C216.551 114.274 217.467 113.249 217.724 111.987C217.98 110.726 217.538 109.425 216.565 108.581C215.593 107.738 214.243 107.483 213.03 107.914C211.192 108.569 210.22 110.578 210.848 112.425C211.476 114.272 213.471 115.273 215.327 114.671ZM177.871 312.945C179.157 312.85 180.291 312.065 180.832 310.895C181.373 309.724 181.236 308.352 180.475 307.312C179.713 306.271 178.447 305.725 177.168 305.886C175.259 306.127 173.89 307.844 174.081 309.758C174.271 311.672 175.953 313.086 177.871 312.945ZM251.627 127.515C252.851 127.109 253.757 126.071 253.994 124.804C254.23 123.537 253.76 122.242 252.765 121.422C251.77 120.603 250.408 120.389 249.21 120.864C247.43 121.57 246.533 123.564 247.188 125.364C247.842 127.164 249.809 128.117 251.627 127.515ZM274.022 189.894C272.166 190.159 270.871 191.874 271.126 193.733C271.381 195.591 273.089 196.895 274.949 196.65C276.823 196.404 278.139 194.68 277.882 192.807C277.626 190.934 275.894 189.627 274.022 189.894ZM178.65 127.609C179.881 127.256 180.824 126.262 181.112 125.014C181.401 123.765 180.989 122.459 180.037 121.602C179.084 120.744 177.742 120.472 176.531 120.889C174.725 121.511 173.743 123.459 174.317 125.281C174.892 127.103 176.813 128.135 178.65 127.609ZM150.885 190.088C149.151 190.691 148.205 192.559 148.745 194.315C149.285 196.07 151.117 197.084 152.891 196.608C154.098 196.285 155.031 195.328 155.325 194.114C155.618 192.9 155.225 191.622 154.3 190.783C153.375 189.944 152.065 189.677 150.885 190.088ZM151.171 235.114C149.374 235.572 148.263 237.372 148.659 239.184C149.054 240.995 150.814 242.168 152.638 241.836C153.876 241.61 154.892 240.727 155.288 239.533C155.684 238.339 155.397 237.024 154.54 236.103C153.682 235.183 152.39 234.803 151.171 235.114ZM250.364 312.914C252.27 312.579 253.553 310.774 253.244 308.864C252.936 306.953 251.15 305.645 249.235 305.927C247.973 306.113 246.908 306.964 246.449 308.155C245.99 309.346 246.207 310.691 247.018 311.677C247.829 312.662 249.107 313.135 250.364 312.914ZM273.428 235.195C271.657 235.778 270.671 237.662 271.201 239.45C271.73 241.237 273.585 242.28 275.387 241.803C276.602 241.483 277.546 240.526 277.851 239.307C278.157 238.088 277.775 236.8 276.854 235.944C275.934 235.089 274.621 234.802 273.428 235.195Z"/><path fill="#01B0FE" fill-opacity="0.98823529" d="M212.371 209.009C216.008 208.47 219.655 209.928 221.917 212.827C224.179 215.725 224.708 219.617 223.301 223.014C221.894 226.411 218.769 228.789 215.119 229.239C209.572 229.924 204.506 226.02 203.753 220.482C203.001 214.943 206.842 209.829 212.371 209.009Z"/><defs><linearGradient id="gradient_1" gradientUnits="userSpaceOnUse" x1="108.71944" y1="261.64706" x2="194.14696" y2="174.72247"><stop offset="0" stop-color="#0099FE"/><stop offset="1" stop-color="#00B6FF" stop-opacity="0.98823529"/></linearGradient></defs><path fill="url(#gradient_1)" d="M170.515 149.118L170.613 149.174C170.757 149.739 170.599 153.39 170.852 154.39C171.111 155.49 169.533 156.877 168.707 157.089C141.024 164.204 116.293 179.727 94.928 198.478C88.5105 204.11 81.8042 211.244 75.5198 217.836C76.313 218.6 77.0637 219.402 77.7942 220.217C96.5327 241.101 118.828 259.382 144.1 271.787C152.504 275.913 162.037 279.13 170.867 282.244C170.609 284.98 170.567 287.052 170.546 289.805C168.261 289.071 165.763 288.425 163.439 287.778C161.758 287.328 159.029 286.169 157.305 285.548C152.476 283.807 147.746 281.832 143.081 279.708C116.329 267.529 92.1896 248.384 72.9728 226.228C71.1433 224.119 67.3284 220.271 66.038 217.773C65.7999 217.215 66.5472 215.983 66.894 215.593C90.3007 189.298 119.156 165.984 152.67 154.181C157.742 152.395 165.355 149.876 170.515 149.118Z"/><path fill="#01B0FE" fill-opacity="0.98823529" d="M257.691 149.283C263.399 150.813 268.47 151.811 274.29 153.871C304.525 164.568 331.455 184.577 352.799 208.293C354.06 209.694 361.073 216.526 360.04 217.863C342.905 240.134 321.085 258.658 296.947 272.974C285.922 279.512 276.701 282.828 264.942 287.436C262.502 288.128 259.719 288.823 257.417 289.826C257.341 288.25 256.687 282.666 258.067 281.971C260.738 280.625 264.036 279.723 266.887 278.666C295.196 268.166 319.966 249.913 340.767 228.26C344.071 224.823 347.289 220.894 350.706 217.525C345.261 210.844 338.25 204.171 331.89 198.371C316.95 184.748 300.239 173.218 281.717 165.007C273.031 161.156 266.306 159.201 257.299 156.526C257.285 154.515 257.203 151.121 257.691 149.283Z"/><path fill="#01B0FE" fill-opacity="0.98823529" d="M204.808 142.363C205.145 142.455 204.997 142.423 205.281 142.864C205.31 144.755 205.911 147.574 205.452 149.161C204.657 150.054 188.741 151.684 186.483 151.827C185.64 151.304 185.502 146.382 185.946 145.392C187.472 144.568 201.167 143.151 204.808 142.363Z"/><path fill="#01B0FE" fill-opacity="0.98823529" d="M185.874 284.414C192.319 285.365 198.664 286.068 205.149 286.619C205.269 288.661 205.102 291.531 205.156 293.753C204.227 293.787 203.312 293.674 202.392 293.574C196.84 292.97 191.288 292.393 185.761 291.585C185.754 289.147 185.794 286.851 185.874 284.414Z"/><path fill="#01B0FE" fill-opacity="0.98823529" d="M222.42 142.751C224.519 142.853 240.209 144.461 241.477 145.081C242.266 146.721 241.696 149.94 241.507 151.86C239.383 152.157 226.08 149.823 222.454 149.67C222.417 148.215 222.231 143.944 222.42 142.751Z"/><path fill="#01B0FE" fill-opacity="0.98823529" d="M240.478 284.613L240.879 284.598C241.624 285.519 241.522 289.618 241.5 290.994C241.145 291.411 241.031 291.668 240.428 291.75C234.888 292.505 229.116 293.144 223.557 293.631L222.997 293.543C222.177 292.684 222.315 288.188 222.28 286.756C226.966 285.857 235.23 285.358 240.478 284.613Z"/><path fill="#00649C" d="M253.024 269.913C253.864 272.799 253.779 276.682 253.781 279.733L253.766 293.286C253.767 294.831 253.68 298.367 253.82 299.775C253.743 299.699 253.651 299.636 253.588 299.548C253.093 298.84 253.023 272.56 253.024 269.913Z"/><path fill="#0084C1" d="M253.227 158.89C253.014 156.329 252.934 134.859 253.423 133.806C253.605 133.414 253.809 133.457 254.194 133.318C252.821 135.493 254.667 154.778 253.227 158.89Z"/></svg>